<svg width="34" height="28" viewBox="0 0 34 28" fill="none" xmlns="http://www.w3.org/2000/svg">
<path d="M28.8012 2.96596C26.6004 1.93622 24.2471 1.18785 21.7868 0.761719C21.4846 1.308 21.1316 2.04276 20.8882 2.62726C18.2729 2.23394 15.6816 2.23394 13.1143 2.62726C12.871 2.04276 12.51 1.308 12.2051 0.761719C9.74214 1.18785 7.38615 1.93897 5.18527 2.97141C0.746077 9.67962 -0.457316 16.2212 0.144382 22.6699C3.08869 24.8686 5.94208 26.2043 8.74731 27.0783C9.43994 26.1251 10.0577 25.1117 10.5898 24.0438C9.57631 23.6587 8.60558 23.1834 7.68835 22.6317C7.93169 22.4514 8.16971 22.2629 8.39967 22.069C13.9941 24.6857 20.0726 24.6857 25.6002 22.069C25.8329 22.2629 26.0708 22.4514 26.3115 22.6317C25.3916 23.1861 24.4182 23.6614 23.4047 24.0465C23.9368 25.1117 24.5519 26.1278 25.2472 27.081C28.0551 26.207 30.9112 24.8714 33.8555 22.6699C34.5615 15.1942 32.6494 8.71271 28.8012 2.96596ZM11.352 18.704C9.67261 18.704 8.29537 17.1362 8.29537 15.227C8.29537 13.3178 9.6432 11.7472 11.352 11.7472C13.0608 11.7472 14.438 13.315 14.4086 15.227C14.4113 17.1362 13.0608 18.704 11.352 18.704ZM22.6479 18.704C20.9685 18.704 19.5912 17.1362 19.5912 15.227C19.5912 13.3178 20.939 11.7472 22.6479 11.7472C24.3567 11.7472 25.7339 13.315 25.7045 15.227C25.7045 17.1362 24.3567 18.704 22.6479 18.704Z" fill="white"/>
</svg>
