<svg width="58" height="58" viewBox="0 0 58 58" fill="none" xmlns="http://www.w3.org/2000/svg">
<g clip-path="url(#clip0)">
<path d="M50.365 11.7477L44.2492 5.63186L36.5417 1.70674L27.9984 0.351929L19.4551 1.70674L11.7477 5.63186L5.63186 11.7477L1.70674 19.4551L0.351929 27.9984L1.70674 36.5417L5.63186 44.2492L11.7477 50.365L19.4551 54.2936L27.9984 55.6484L36.5417 54.2936L44.2492 50.365L50.365 44.2492L54.2936 36.5417L55.6484 27.9984L54.2936 19.4551L50.365 11.7477Z" stroke="white" stroke-miterlimit="10"/>
<path d="M44.2493 5.63181L27.9985 27.9984" stroke="white" stroke-width="0.5" stroke-miterlimit="10"/>
<path d="M11.7478 5.63181L27.9986 27.9984" stroke="white" stroke-width="0.5" stroke-miterlimit="10"/>
<path d="M1.70699 36.5412L27.9987 27.9979" stroke="white" stroke-width="0.5" stroke-miterlimit="10"/>
<path d="M27.9985 55.6444V27.9979" stroke="white" stroke-width="0.5" stroke-miterlimit="10"/>
<path d="M54.2937 36.5412L27.9985 27.9979" stroke="white" stroke-width="0.5" stroke-miterlimit="10"/>
<path d="M27.9982 35.7124L35.333 30.3837L32.5328 21.7603H23.4636L20.6635 30.3837L27.9982 35.7124Z" stroke="white" stroke-width="0.5" stroke-miterlimit="10"/>
<path d="M19.4554 1.70636L27.9987 13.7046L36.542 1.70636" stroke="white" stroke-width="0.5" stroke-miterlimit="10"/>
<path d="M27.9987 3.5178V0.351929L20.7475 3.5178H27.9987ZM27.9987 3.5178L23.5407 7.44292H32.4567L27.9987 3.5178Z" stroke="white" stroke-width="0.5" stroke-miterlimit="10"/>
<path d="M27.9985 0.351929L35.2532 3.5178H27.9985" stroke="white" stroke-width="0.5" stroke-miterlimit="10"/>
<path d="M23.4636 21.7608L27.9982 13.7051L32.5328 21.7608" stroke="white" stroke-width="0.5" stroke-miterlimit="10"/>
<path d="M27.9986 13.7051L18.2711 14.6071L23.5406 7.44297L14.3808 9.25751L20.7474 3.51785L11.7478 5.63191" stroke="white" stroke-width="0.5" stroke-miterlimit="10"/>
<path d="M27.9985 13.7051L37.7295 14.6071L32.4565 7.44297L41.6163 9.25751L35.2532 3.51785L44.2493 5.63191" stroke="white" stroke-width="0.5" stroke-miterlimit="10"/>
<path d="M0.351929 27.998L14.405 23.5818L5.63186 11.7472" stroke="white" stroke-width="0.5" stroke-miterlimit="10"/>
<path d="M1.70334 19.4546L4.71248 20.4333L7.07034 25.8874L9.82524 17.4067L4.71248 20.4333L2.47304 27.3292L1.70334 19.4546Z" stroke="white" stroke-width="0.5" stroke-miterlimit="10"/>
<path d="M1.70334 19.4553L6.95541 13.5345L4.71248 20.434" stroke="white" stroke-width="0.5" stroke-miterlimit="10"/>
<path d="M20.6639 30.3837L14.4053 23.5818L23.4641 21.7603" stroke="white" stroke-width="0.5" stroke-miterlimit="10"/>
<path d="M14.4051 23.5827L12.2562 33.1151L7.07034 25.8883L5.96629 35.1595L2.47304 27.3302L1.70334 36.5422" stroke="white" stroke-width="0.5" stroke-miterlimit="10"/>
<path d="M14.4016 23.5822L18.2675 14.607L9.82518 17.4072L14.3807 9.25392L6.95535 13.5343L11.7477 5.63181" stroke="white" stroke-width="0.5" stroke-miterlimit="10"/>
<path d="M19.4514 54.2935L19.5942 39.5612L5.62813 44.2491" stroke="white" stroke-width="0.5" stroke-miterlimit="10"/>
<path d="M11.7478 50.3654L13.6042 47.8055L19.5214 47.2483L12.3086 42.0101L13.6042 47.8055L19.4762 52.0685L11.7478 50.3654Z" stroke="white" stroke-width="0.5" stroke-miterlimit="10"/>
<path d="M11.7476 50.3652L7.73537 43.5424L13.6039 47.8053" stroke="white" stroke-width="0.5" stroke-miterlimit="10"/>
<path d="M27.9984 35.7125L19.5944 39.561L20.6636 30.3839" stroke="white" stroke-width="0.5" stroke-miterlimit="10"/>
<path d="M19.5943 39.5612L27.9983 44.5521L19.5212 47.2478L27.9983 51.166L19.4759 52.068L27.9983 55.6448" stroke="white" stroke-width="0.5" stroke-miterlimit="10"/>
<path d="M19.5945 39.5646L12.2562 33.1144L12.3085 42.0095L5.96281 35.1588L7.73904 43.5419L1.70334 36.5415" stroke="white" stroke-width="0.5" stroke-miterlimit="10"/>
<path d="M50.3615 44.2527L36.3989 39.5649L36.5417 54.2937" stroke="white" stroke-width="0.5" stroke-miterlimit="10"/>
<path d="M44.2457 50.3689L42.3859 47.809L43.685 42.0101L36.4721 47.2518L42.3859 47.809L48.2544 43.546L44.2457 50.3689Z" stroke="white" stroke-width="0.5" stroke-miterlimit="10"/>
<path d="M44.2458 50.3686L36.5175 52.0717L42.386 47.8088" stroke="white" stroke-width="0.5" stroke-miterlimit="10"/>
<path d="M35.3333 30.3839L36.399 39.5645L27.9985 35.7125" stroke="white" stroke-width="0.5" stroke-miterlimit="10"/>
<path d="M36.3989 39.5646L43.7407 33.1144L43.685 42.0095L50.0306 35.1588L48.2544 43.5454L54.2901 36.545" stroke="white" stroke-width="0.5" stroke-miterlimit="10"/>
<path d="M36.399 39.5649L27.9985 44.5523L36.4722 47.2514L27.9985 51.1696L36.5209 52.0716L27.9985 55.6485" stroke="white" stroke-width="0.5" stroke-miterlimit="10"/>
<path d="M50.3649 11.7508L41.5917 23.5854L55.6448 28.0016" stroke="white" stroke-width="0.5" stroke-miterlimit="10"/>
<path d="M54.2939 19.459L51.2847 20.4376L46.172 17.4076L48.9269 25.8882L51.2847 20.4376L49.0418 13.5382L54.2939 19.459Z" stroke="white" stroke-width="0.5" stroke-miterlimit="10"/>
<path d="M54.2934 19.459L53.5237 27.3336L51.2843 20.4377" stroke="white" stroke-width="0.5" stroke-miterlimit="10"/>
<path d="M32.5328 21.7603L41.5916 23.5852L35.3329 30.3837" stroke="white" stroke-width="0.5" stroke-miterlimit="10"/>
<path d="M41.5916 23.5858L37.7292 14.6106L46.1715 17.4073L41.616 9.25755L49.0413 13.5379L44.249 5.63544" stroke="white" stroke-width="0.5" stroke-miterlimit="10"/>
<path d="M41.5917 23.5827L43.7406 33.1151L48.9265 25.8883L50.034 35.1595L53.5238 27.3337L54.29 36.5457" stroke="white" stroke-width="0.5" stroke-miterlimit="10"/>
</g>
<defs>
<clipPath id="clip0">
<rect width="56" height="56" fill="white"/>
</clipPath>
</defs>
</svg>
