<svg width="48" height="48" viewBox="0 0 48 48" fill="none" xmlns="http://www.w3.org/2000/svg">
<path fill-rule="evenodd" clip-rule="evenodd" d="M29.448 35.735C29.8236 36.0086 30.3078 36.077 30.7394 35.909C31.1711 35.7398 31.4884 35.3606 31.5841 34.901C32.5979 30.0002 35.0572 17.5958 35.98 13.1378C36.05 12.8018 35.9333 12.4526 35.6767 12.2282C35.42 12.0038 35.0642 11.939 34.7469 12.0602C29.8551 13.9226 14.7903 19.7366 8.63278 22.0802C8.24196 22.229 7.98763 22.6154 8.00046 23.039C8.01446 23.4638 8.29212 23.8322 8.69228 23.9558C11.4537 24.8054 15.0785 25.9874 15.0785 25.9874C15.0785 25.9874 16.7724 31.2494 17.6556 33.9254C17.7664 34.2614 18.0219 34.5254 18.3591 34.6166C18.6951 34.7066 19.0544 34.6118 19.3052 34.3682C20.7238 32.9906 22.9171 30.8606 22.9171 30.8606C22.9171 30.8606 27.0844 34.0034 29.448 35.735ZM16.6033 25.3226L18.5621 31.9682L18.9972 27.7598C18.9972 27.7598 26.5652 20.7386 30.8794 16.7366C31.0054 16.619 31.0229 16.4222 30.9179 16.2842C30.8141 16.1462 30.6228 16.1138 30.4793 16.2074C25.4791 19.4918 16.6033 25.3226 16.6033 25.3226Z" fill="white"/>
</svg>
