<svg width="48" height="48" viewBox="0 0 48 48" fill="none" xmlns="http://www.w3.org/2000/svg">
<path d="M41 14.078C39.7859 14.6006 38.481 14.9525 37.1115 15.1112C38.5099 14.2993 39.5837 13.0129 40.0884 11.4799C38.7808 12.2317 37.3315 12.7783 35.7887 13.0729C34.5554 11.7972 32.794 11 30.847 11C26.4759 11 23.2639 14.9539 24.2511 19.0583C18.626 18.7851 13.6375 16.1723 10.2976 12.2011C8.52388 15.1511 9.37775 19.0104 12.3917 20.9646C11.2835 20.93 10.2385 20.6354 9.32687 20.1435C9.25262 23.1842 11.5008 26.0289 14.7568 26.6621C13.8039 26.9127 12.7603 26.9714 11.6988 26.7741C12.5595 29.3816 15.0592 31.2785 18.0238 31.3318C15.1775 33.4954 11.5915 34.4619 8 34.0513C10.9961 35.9136 14.556 37 18.3785 37C30.9487 37 38.0506 26.7074 37.6216 17.476C38.9444 16.5495 40.0925 15.3938 41 14.078Z" fill="white"/>
</svg>
