<svg width="33" height="26" viewBox="0 0 33 26" fill="none" xmlns="http://www.w3.org/2000/svg">
<path d="M33 3.07803C31.7859 3.60059 30.481 3.95252 29.1115 4.11116C30.5099 3.29932 31.5837 2.01292 32.0884 0.479902C30.7808 1.23175 29.3315 1.7783 27.7887 2.07291C26.5554 0.79717 24.794 0 22.847 0C18.4759 0 15.2639 3.95385 16.2511 8.05834C10.626 7.78507 5.6375 5.17227 2.29763 1.20109C0.523875 4.15115 1.37775 8.01035 4.39175 9.96462C3.2835 9.92996 2.2385 9.63535 1.32687 9.14346C1.25262 12.1842 3.50075 15.0289 6.75675 15.6621C5.80387 15.9127 4.76025 15.9714 3.69875 15.7741C4.5595 18.3816 7.05925 20.2785 10.0238 20.3318C7.1775 22.4954 3.5915 23.4619 0 23.0513C2.99612 24.9136 6.556 26 10.3785 26C22.9487 26 30.0506 15.7074 29.6216 6.476C30.9444 5.54953 32.0925 4.39376 33 3.07803Z" fill="white"/>
</svg>
